<?xml version="1.0" encoding="UTF-8" standalone="no"?>
<!DOCTYPE svg PUBLIC "-//W3C//DTD SVG 1.1//EN" "http://www.w3.org/Graphics/SVG/1.1/DTD/svg11.dtd">
<svg width="100%" height="100%" viewBox="0 0 256 65" version="1.1" xmlns="http://www.w3.org/2000/svg" xmlns:xlink="http://www.w3.org/1999/xlink" xml:space="preserve" xmlns:serif="http://www.serif.com/" style="fill-rule:evenodd;clip-rule:evenodd;stroke-miterlimit:10;">
    <g transform="matrix(1,0,0,1,-356.968,-153.521)">
        <g transform="matrix(-1,1.22465e-16,-1.22465e-16,-1,362.244,165.439)">
            <path d="M0,-40.168L-5.819,-46.81L-11.639,-40.168L-17.458,-46.81L-23.273,-40.168L-29.087,-46.81L-34.901,-40.168L-40.717,-46.81L-46.537,-40.168L-52.356,-46.81L-58.172,-40.168L-63.987,-46.81L-69.805,-40.168L-75.628,-46.81L-81.446,-40.168L-87.263,-46.81L-93.083,-40.168L-98.904,-46.81L-104.722,-40.168L-110.542,-46.81L-116.364,-40.168L-122.184,-46.81L-128.006,-40.168L-133.827,-46.81L-139.648,-40.168L-145.47,-46.81L-151.293,-40.168L-157.115,-46.81L-162.938,-40.168L-168.762,-46.81L-174.585,-40.168L-180.403,-46.81L-186.226,-40.168L-192.046,-46.81L-197.868,-40.168L-203.693,-46.81L-209.518,-40.168L-215.343,-46.81L-221.17,-40.168L-226.993,-46.81L-232.822,-40.168L-238.654,-46.81L-244.487,-40.168M0,-30.806L-5.819,-37.448L-11.639,-30.806L-17.458,-37.448L-23.273,-30.806L-29.087,-37.448L-34.901,-30.806L-40.717,-37.448L-46.537,-30.806L-52.356,-37.448L-58.172,-30.806L-63.987,-37.448L-69.805,-30.806L-75.628,-37.448L-81.446,-30.806L-87.263,-37.448L-93.083,-30.806L-98.904,-37.448L-104.722,-30.806L-110.542,-37.448L-116.364,-30.806L-122.184,-37.448L-128.006,-30.806L-133.827,-37.448L-139.648,-30.806L-145.47,-37.448L-151.293,-30.806L-157.115,-37.448L-162.938,-30.806L-168.762,-37.448L-174.585,-30.806L-180.403,-37.448L-186.226,-30.806L-192.046,-37.448L-197.868,-30.806L-203.693,-37.448L-209.518,-30.806L-215.343,-37.448L-221.17,-30.806L-226.993,-37.448L-232.822,-30.806L-238.654,-37.448L-244.487,-30.806M0,-21.444L-5.819,-28.086L-11.639,-21.444L-17.458,-28.086L-23.273,-21.444L-29.087,-28.086L-34.901,-21.444L-40.717,-28.086L-46.537,-21.444L-52.356,-28.086L-58.172,-21.444L-63.987,-28.086L-69.805,-21.444L-75.628,-28.086L-81.446,-21.444L-87.263,-28.086L-93.083,-21.444L-98.904,-28.086L-104.722,-21.444L-110.542,-28.086L-116.364,-21.444L-122.184,-28.086L-128.006,-21.444L-133.827,-28.086L-139.648,-21.444L-145.47,-28.086L-151.293,-21.444L-157.115,-28.086L-162.938,-21.444L-168.762,-28.086L-174.585,-21.444L-180.403,-28.086L-186.226,-21.444L-192.046,-28.086L-197.868,-21.444L-203.693,-28.086L-209.518,-21.444L-215.343,-28.086L-221.17,-21.444L-226.993,-28.086L-232.822,-21.444L-238.654,-28.086L-244.487,-21.444M0,-12.082L-5.819,-18.724L-11.639,-12.082L-17.458,-18.724L-23.273,-12.082L-29.087,-18.724L-34.901,-12.082L-40.717,-18.724L-46.537,-12.082L-52.356,-18.724L-58.172,-12.082L-63.987,-18.724L-69.805,-12.082L-75.628,-18.724L-81.446,-12.082L-87.263,-18.724L-93.083,-12.082L-98.904,-18.724L-104.722,-12.082L-110.542,-18.724L-116.364,-12.082L-122.184,-18.724L-128.006,-12.082L-133.827,-18.724L-139.648,-12.082L-145.47,-18.724L-151.293,-12.082L-157.115,-18.724L-162.938,-12.082L-168.762,-18.724L-174.585,-12.082L-180.403,-18.724L-186.226,-12.082L-192.046,-18.724L-197.868,-12.082L-203.693,-18.724L-209.518,-12.082L-215.343,-18.724L-221.17,-12.082L-226.993,-18.724L-232.822,-12.082L-238.654,-18.724L-244.487,-12.082M0,-2.72L-5.819,-9.362L-11.639,-2.72L-17.458,-9.362L-23.273,-2.72L-29.087,-9.362L-34.901,-2.72L-40.717,-9.362L-46.537,-2.72L-52.356,-9.362L-58.172,-2.72L-63.987,-9.362L-69.805,-2.72L-75.628,-9.362L-81.446,-2.72L-87.263,-9.362L-93.083,-2.72L-98.904,-9.362L-104.722,-2.72L-110.542,-9.362L-116.364,-2.72L-122.184,-9.362L-128.006,-2.72L-133.827,-9.362L-139.648,-2.72L-145.47,-9.362L-151.293,-2.72L-157.115,-9.362L-162.938,-2.72L-168.762,-9.362L-174.585,-2.72L-180.403,-9.362L-186.226,-2.72L-192.046,-9.362L-197.868,-2.72L-203.693,-9.362L-209.518,-2.72L-215.343,-9.362L-221.17,-2.72L-226.993,-9.362L-232.822,-2.72L-238.654,-9.362L-244.487,-2.72M0,6.642L-5.819,0L-11.639,6.642L-17.458,0L-23.273,6.642L-29.087,0L-34.901,6.642L-40.717,0L-46.537,6.642L-52.356,0L-58.172,6.642L-63.987,0L-69.805,6.642L-75.628,0L-81.446,6.642L-87.263,0L-93.083,6.642L-98.904,0L-104.722,6.642L-110.542,0L-116.364,6.642L-122.184,0L-128.006,6.642L-133.827,0L-139.648,6.642L-145.47,0L-151.293,6.642L-157.115,0L-162.938,6.642L-168.762,0L-174.585,6.642L-180.403,0L-186.226,6.642L-192.046,0L-197.868,6.642L-203.693,0L-209.518,6.642L-215.343,0L-221.17,6.642L-226.993,0L-232.822,6.642L-238.654,0L-244.487,6.642" style="fill:none;fill-rule:nonzero;stroke:white;stroke-width:1.05px;"/>
        </g>
    </g>
</svg>
