<?xml version="1.0" encoding="UTF-8" standalone="no"?>
<!DOCTYPE svg PUBLIC "-//W3C//DTD SVG 1.1//EN" "http://www.w3.org/Graphics/SVG/1.1/DTD/svg11.dtd">
<svg width="100%" height="100%" viewBox="0 0 148 148" version="1.1" xmlns="http://www.w3.org/2000/svg" xmlns:xlink="http://www.w3.org/1999/xlink" xml:space="preserve" xmlns:serif="http://www.serif.com/" style="fill-rule:evenodd;clip-rule:evenodd;stroke-linejoin:round;stroke-miterlimit:2;">
    <g transform="matrix(1,0,0,1,-802.752,-112.959)">
        <g transform="matrix(1,0,0,1,876.502,112.959)">
            <path d="M0,147.501C-40.666,147.501 -73.75,114.416 -73.75,73.75C-73.75,33.084 -40.666,0 0,0C40.666,0 73.751,33.084 73.751,73.75C73.751,114.416 40.666,147.501 0,147.501M0,1.5C-39.839,1.5 -72.25,33.912 -72.25,73.75C-72.25,113.589 -39.839,146.001 0,146.001C39.839,146.001 72.251,113.589 72.251,73.75C72.251,33.912 39.839,1.5 0,1.5" style="fill:white;fill-rule:nonzero;"/>
        </g>
        <g transform="matrix(1,0,0,1,858.493,129.066)">
            <path d="M0,91.137L-17.988,41.442L-33.248,83.587L-34.017,81.953C-37.667,74.195 -39.517,65.976 -39.517,57.527C-39.517,25.806 -13.71,0 18.01,0C49.729,0 75.536,25.806 75.536,57.527C75.536,65.983 73.683,74.207 70.028,81.969L69.26,83.602L53.983,41.442L35.991,91.137L17.992,41.442L0,91.137ZM17.992,37.036L35.991,86.731L53.983,37.037L69.426,79.659C72.486,72.593 74.036,65.157 74.036,57.527C74.036,26.634 48.902,1.5 18.01,1.5C-12.883,1.5 -38.017,26.634 -38.017,57.527C-38.017,65.15 -36.469,72.58 -33.415,79.641L-17.988,37.036L0,86.731L17.992,37.036Z" style="fill:white;fill-rule:nonzero;"/>
        </g>
    </g>
</svg>
